HIERARCHY
ROOT hip
{
  OFFSET 0 0 0
  CHANNELS 6 Xposition Yposition Zposition Zrotation Yrotation Xrotation
  JOINT abdomen
  {
    OFFSET 0 20.6881 -0.73152
    CHANNELS 3 Zrotation Xrotation Yrotation
    JOINT chest
    {
      OFFSET 0 11.7043 -0.48768
      CHANNELS 3 Zrotation Xrotation Yrotation
      JOINT neck
      {
        OFFSET 0 22.1894 -2.19456
        CHANNELS 3 Zrotation Xrotation Yrotation
        JOINT head
        {
          OFFSET -0.24384 7.07133 1.2192
          CHANNELS 3 Zrotation Xrotation Yrotation
          JOINT leftEye
          {
            OFFSET 4.14528 8.04674 8.04672
            CHANNELS 3 Zrotation Xrotation Yrotation
            End Site
            {
              OFFSET 1 0 0
            }
          }
          JOINT rightEye
          {
            OFFSET -3.6576 8.04674 8.04672
            CHANNELS 3 Zrotation Xrotation Yrotation
            End Site
            {
              OFFSET 1 0 0
            }
          }
        }
      }
      JOINT rCollar
      {
        OFFSET -2.68224 19.2634 -4.8768
        CHANNELS 3 Zrotation Xrotation Yrotation
        JOINT rShldr
        {
          OFFSET -8.77824 -1.95073 1.46304
          CHANNELS 3 Zrotation Xrotation Yrotation
          JOINT rForeArm
          {
            OFFSET -28.1742 -1.7115 0.48768
            CHANNELS 3 Zrotation Xrotation Yrotation
            JOINT rHand
            {
              OFFSET -22.5879 0.773209 7.07136
              CHANNELS 3 Zrotation Xrotation Yrotation
              JOINT rThumb1
              {
                OFFSET -1.2192 -0.487915 3.41376
                CHANNELS 3 Zrotation Xrotation Yrotation
                JOINT rThumb2
                {
                  OFFSET -3.37035 -0.52449 3.41376
                  CHANNELS 3 Zrotation Xrotation Yrotation
                  End Site
                  {
                    OFFSET -1.78271 -1.18214 1.43049
                  }
                }
              }
              JOINT rIndex1
              {
                OFFSET -7.75947 0.938293 5.60832
                CHANNELS 3 Zrotation Xrotation Yrotation
                JOINT rIndex2
                {
                  OFFSET -2.54057 -0.884171 1.56538
                  CHANNELS 3 Zrotation Xrotation Yrotation
                  End Site
                  {
                    OFFSET -1.62519 -0.234802 1.16502
                  }
                }
              }
              JOINT rMid1
              {
                OFFSET -8.24714 1.18213 3.41376
                CHANNELS 3 Zrotation Xrotation Yrotation
                JOINT rMid2
                {
                  OFFSET -3.10165 -0.590103 1.0647
                  CHANNELS 3 Zrotation Xrotation Yrotation
                  End Site
                  {
                    OFFSET -2.48547 -0.328903 0.83742
                  }
                }
              }
              JOINT rRing1
              {
                OFFSET -8.82822 0.546677 1.51678
                CHANNELS 3 Zrotation Xrotation Yrotation
                JOINT rRing2
                {
                  OFFSET -2.60934 -0.819778 -0.0198488
                  CHANNELS 3 Zrotation Xrotation Yrotation
                  End Site
                  {
                    OFFSET -2.33842 -0.294052 0.168128
                  }
                }
              }
              JOINT rPinky1
              {
                OFFSET -8.27202 -0.0477905 -0.4584
                CHANNELS 3 Zrotation Xrotation Yrotation
                JOINT rPinky2
                {
                  OFFSET -1.82734 -0.647385 -0.700984
                  CHANNELS 3 Zrotation Xrotation Yrotation
                  End Site
                  {
                    OFFSET -1.69225 -0.51767 -0.607171
                  }
                }
              }
            }
          }
        }
      }
      JOINT lCollar
      {
        OFFSET 2.68224 19.2634 -4.8768
        CHANNELS 3 Zrotation Xrotation Yrotation
        JOINT lShldr
        {
          OFFSET 8.77824 -1.95073 1.46304
          CHANNELS 3 Zrotation Xrotation Yrotation
          JOINT lForeArm
          {
            OFFSET 28.1742 -1.7115 0.48768
            CHANNELS 3 Zrotation Xrotation Yrotation
            JOINT lHand
            {
              OFFSET 22.5879 0.773209 7.07136
              CHANNELS 3 Zrotation Xrotation Yrotation
              JOINT lThumb1
              {
                OFFSET 1.2192 -0.487915 3.41376
                CHANNELS 3 Zrotation Xrotation Yrotation
                JOINT lThumb2
                {
                  OFFSET 3.37035 -0.52449 3.41376
                  CHANNELS 3 Zrotation Xrotation Yrotation
                  End Site
                  {
                    OFFSET 1.78271 -1.18214 1.43049
                  }
                }
              }
              JOINT lIndex1
              {
                OFFSET 7.75947 0.938293 5.60832
                CHANNELS 3 Zrotation Xrotation Yrotation
                JOINT lIndex2
                {
                  OFFSET 2.54057 -0.884171 1.56538
                  CHANNELS 3 Zrotation Xrotation Yrotation
                  End Site
                  {
                    OFFSET 1.62519 -0.234802 1.16502
                  }
                }
              }
              JOINT lMid1
              {
                OFFSET 8.24714 1.18213 3.41376
                CHANNELS 3 Zrotation Xrotation Yrotation
                JOINT lMid2
                {
                  OFFSET 3.10165 -0.590103 1.0647
                  CHANNELS 3 Zrotation Xrotation Yrotation
                  End Site
                  {
                    OFFSET 2.48547 -0.328903 0.83742
                  }
                }
              }
              JOINT lRing1
              {
                OFFSET 8.82822 0.546677 1.51678
                CHANNELS 3 Zrotation Xrotation Yrotation
                JOINT lRing2
                {
                  OFFSET 2.60934 -0.819778 -0.0198488
                  CHANNELS 3 Zrotation Xrotation Yrotation
                  End Site
                  {
                    OFFSET 2.33842 -0.294052 0.168128
                  }
                }
              }
              JOINT lPinky1
              {
                OFFSET 8.27202 -0.0477905 -0.4584
                CHANNELS 3 Zrotation Xrotation Yrotation
                JOINT lPinky2
                {
                  OFFSET 1.82734 -0.647385 -0.700984
                  CHANNELS 3 Zrotation Xrotation Yrotation
                  End Site
                  {
                    OFFSET 1.69225 -0.51767 -0.607171
                  }
                }
              }
            }
          }
        }
      }
    }
  }
  JOINT rButtock
  {
    OFFSET -8.77824 4.35084 1.2192
    CHANNELS 3 Zrotation Xrotation Yrotation
    JOINT rThigh
    {
      OFFSET 0 -1.70687 -2.19456
      CHANNELS 3 Zrotation Xrotation Yrotation
      JOINT rShin
      {
        OFFSET 0 -36.8199 0.73152
        CHANNELS 3 Zrotation Xrotation Yrotation
        JOINT rFoot
        {
          OFFSET 0.73152 -45.1104 -5.12064
          CHANNELS 3 Zrotation Xrotation Yrotation
          End Site
          {
            OFFSET -1.1221 -3.69964 12.103
          }
        }
      }
    }
  }
  JOINT lButtock
  {
    OFFSET 8.77824 4.35084 1.2192
    CHANNELS 3 Zrotation Xrotation Yrotation
    JOINT lThigh
    {
      OFFSET 0 -1.70687 -2.19456
      CHANNELS 3 Zrotation Xrotation Yrotation
      JOINT lShin
      {
        OFFSET 0 -36.8199 0.73152
        CHANNELS 3 Zrotation Xrotation Yrotation
        JOINT lFoot
        {
          OFFSET -0.73152 -45.1104 -5.12064
          CHANNELS 3 Zrotation Xrotation Yrotation
          End Site
          {
            OFFSET 1.1221 -3.69964 12.103
          }
        }
      }
    }
  }
}
MOTION
Frames:	4
Frame Time:	0.03333
-0.17659000102412392 51.69919729232788 0.3780000024562469 -13.549999921717157 -25.469799320639645 11.656900295126817 10.447500043133816 4.154939822128511 1.934899957423994 3.485569970966448 -6.224739857641665 0.5873219903138727 -6.402259889264881 12.763799898245438 -6.417609885650839 7.21535036749894 -21.4855006758665 -10.931400162809002 -0.0 0.0 0.0 -0.0 0.0 0.0 4.1914800293323207e-13 3.840539918403586e-13 -4.2573599665186957e-13 103.53499906190974 51.30859961118922 -52.61789906375648 -27.25459946775026 -43.29379950700239 90.0573009614254 -3.872280127290349 -47.43070165330654 -8.800900236141945 5.739229917948872e-10 -1.9488399557318943e-09 -1.977989938172175e-10 1.0024600461147309e-09 -3.3766700685385685e-09 -3.312770091091121e-10 5.739329807244338e-10 -1.9488399557318943e-09 -1.9781299571224096e-10 7.730910121524428 5.474879855648998 0.41731399283890674 5.739210039482114e-10 -1.9488399557318943e-09 -1.9779500569982394e-10 2.90554006136521 0.9651829962377875 0.10290200252939893 5.739329807244338e-10 -1.9488500937499416e-09 -1.9780099408793514e-10 10.278599710243157 0.7318009818271524 0.025912300303053633 5.739180221781974e-10 -1.9488399557318943e-09 -1.977959996231619e-10 2.221669932038622 -0.7334870246959406 -0.20891999872313852 4.191000053657887e-13 3.8404998799878724e-13 -4.2587300083072965e-13 -40.804800026274286 29.04530089830377 -38.132498758790554 16.461000078993557 -9.124029655586078 -30.652799579844608 1.071300016834279 28.027500259134317 -4.290499867246223 -4.14168997938666e-10 -2.510740053261514e-10 -5.137139983591111e-10 -7.239789774656573e-10 -3.8555498865837873e-10 -8.768010020897957e-10 -4.141710106334253e-10 -2.510809876376006e-10 -5.137100226657593e-10 -7.730910121524428 5.474879855648998 -0.41731399283890674 -4.141699918620039e-10 -2.5107899979092464e-10 -5.137079851229165e-10 -2.90554006136521 0.9651829962377875 -0.10290200252939893 -4.141699918620039e-10 -2.510780058675867e-10 -5.137139983591111e-10 -10.278599710243157 0.7318009818271524 -0.025912300303053633 -4.141630095505548e-10 -2.510740053261514e-10 -5.137210055186437e-10 -2.221669932038622 -0.7334870246959406 0.20891999872313852 -2.0321699793705798e-16 0.0 -3.882510030490358e-19 -10.085699800156364 14.478800634680402 0.1523600026190563 0.10578899809355903 29.5618988410831 2.407309991367926 -11.54670031551054 -18.801299511301313 -36.02899856991256 2.0321699793705798e-16 0.0 3.882510030490358e-19 82.57620159369961 -52.66159861406622 77.638200220023 7.376489897945174 81.90650154557986 -6.9189999853563116 -0.09219830235730221 -4.762249934161602 -3.8072699598833446
-0.17846000107510918 51.70069932937622 0.3780000024562469 -13.55959975259561 -25.495100048872665 11.655400214830355 10.453199835996193 4.159270162062299 1.9150200515144373 3.4929600222049904 -6.232519869993132 0.5825349882010458 -6.472890021698336 12.881999736927094 -6.510030029083927 7.244680053568621 -21.519999961364235 -11.112500067330952 -0.0 0.0 0.0 -0.0 0.0 0.0 5.111720064209244e-13 5.130980240766947e-13 -3.449260011686593e-13 103.54699970428146 51.337201028338654 -52.64790066968576 -27.260099477579413 -43.27759829829112 90.02519907232634 -3.876280056823038 -47.44810156021715 -8.806330236532105 -8.678039707624806e-11 -6.13063991020649e-10 -4.856620030302719e-10 -1.265539974465154e-10 -1.142920000134524e-09 -8.508530430750784e-10 -8.677179963937473e-11 -6.130540020911026e-10 -4.85678005196013e-10 7.730910121524428 5.474879855648998 0.41731399283890674 -8.678329808999072e-11 -6.130610092506352e-10 -4.856610091069339e-10 2.90554006136521 0.9651829962377875 0.10290200252939893 -8.677260099006596e-11 -6.13065978867325e-10 -4.856659787236237e-10 10.278599710243157 0.7318009818271524 0.025912300303053633 -8.67860003190658e-11 -6.130569838611164e-10 -4.856629969536098e-10 2.221669932038622 -0.7334870246959406 -0.20891999872313852 5.110680036028949e-13 5.13090016393552e-13 -3.451079939673575e-13 -40.80729987551051 29.031299010505244 -38.11229847432024 16.458800758080812 -9.121830334673334 -30.648199447438607 1.0707400480440437 28.020799843558535 -4.289290069989485 -8.438949833553742e-10 -2.3414999059793274e-09 -1.7667299424119996e-09 -1.4931700366899875e-09 -3.903750000073361e-09 -3.0311600523818237e-09 -8.43899952972064e-10 -2.3415100439973746e-09 -1.76672000317862e-09 -7.730910121524428 5.474879855648998 -0.41731399283890674 -8.438949833553742e-10 -2.3415100439973746e-09 -1.76672000317862e-09 -2.90554006136521 0.9651829962377875 -0.10290200252939893 -8.438949833553742e-10 -2.3415100439973746e-09 -1.7667299424119996e-09 -10.278599710243157 0.7318009818271524 -0.025912300303053633 -8.438890198153465e-10 -2.3414999059793274e-09 -1.7667299424119996e-09 -2.221669932038622 -0.7334870246959406 0.20891999872313852 -2.0321699793705798e-16 0.0 -3.882510030490358e-19 -10.10110016918745 14.478500106356922 0.14696599412417094 0.10783399941974317 29.562199369406578 2.406769979536672 -11.529699974666379 -18.796800124185566 -36.0047992096832 2.0321699793705798e-16 0.0 3.882510030490358e-19 82.53950298728913 -52.64339957502272 77.59230134880052 7.3644397367019785 81.89749935625377 -6.9090300436022085 -0.08803370123259271 -4.7604599977122355 -3.7773900166986545
-0.17764000110673805 51.70090198516846 0.3810000023804605 -13.537000364179331 -25.52580004164458 11.633500067030354 10.433000405299525 4.181350029214834 1.894069940339304 3.509429956171418 -6.244400130280723 0.577973008804859 -6.5110998074626805 12.978799739165453 -6.583320093312279 7.23502985004504 -21.535799896461768 -11.264499950894061 -0.0 0.0 0.0 -0.0 0.0 0.0 1.3558200220103805e-13 3.1430001034665367e-13 2.1060699259202727e-13 103.54200000580902 51.35880150158882 -52.66180010464674 -27.265099176051862 -43.26339833500666 89.99630054194802 -3.8832498379842124 -47.478598354861255 -8.815790048532573 -1.734060079862677e-09 3.851429875563287e-09 -5.53958997932509e-10 -2.973100020595045e-09 6.4876600555784506e-09 -1.0140999817178833e-09 -1.734060079862677e-09 3.851439814796666e-09 -5.539699807853934e-10 7.730910121524428 5.474879855648998 0.41731399283890674 -1.7340700190960565e-09 3.851439814796666e-09 -5.539630233220278e-10 2.90554006136521 0.9651829962377875 0.10290200252939893 -1.734060079862677e-09 3.851439814796666e-09 -5.539630233220278e-10 10.278599710243157 0.7318009818271524 0.025912300303053633 -1.7340700190960565e-09 3.851439814796666e-09 -5.539570100858332e-10 2.221669932038622 -0.7334870246959406 -0.20891999872313852 1.3531800344724638e-13 3.1429200266351093e-13 2.1033198934034099e-13 -40.82829929211371 29.005699461496036 -38.082300283485544 16.462299522483153 -9.124190165031573 -30.65489986301439 1.0700600173348043 28.01279998449316 -4.287850180735081 -7.306199756405532e-10 -6.733320135634665e-09 -3.3896701882297154e-09 -1.3364999881667802e-09 -1.1406400195111169e-08 -5.84008003910439e-09 -7.306310081896044e-10 -6.73330979883195e-09 -3.389649912193621e-09 -7.730910121524428 5.474879855648998 -0.41731399283890674 -7.306169938705392e-10 -6.733320135634665e-09 -3.3896701882297154e-09 -2.90554006136521 0.9651829962377875 -0.10290200252939893 -7.306240010300718e-10 -6.733320135634665e-09 -3.3896701882297154e-09 -10.278599710243157 0.7318009818271524 -0.025912300303053633 -7.306169938705392e-10 -6.733320135634665e-09 -3.3896701882297154e-09 -2.221669932038622 -0.7334870246959406 0.20891999872313852 -2.0321699793705798e-16 0.0 -3.882510030490358e-19 -10.134800322552293 14.473599445627437 0.1381759942296141 0.11012999685771205 29.58179859722993 2.411000001067025 -11.51750040303509 -18.776599839715253 -36.002599888770455 2.0321699793705798e-16 0.0 3.882510030490358e-19 82.4548018113918 -52.629199611738265 77.5149972677743 7.3401302396722565 81.8795018077908 -6.8864498650929695 -0.084294099290838 -4.761390184099827 -3.7444100214044247
-0.17775000110304973 51.7009973526001 0.3860000022541499 -13.4919996628327 -25.5616004781792 11.591800054600133 10.397499643314738 4.2082199934096645 1.8612500276037465 3.53559000757939 -6.249380191959308 0.5707290062206788 -6.435890033190731 13.099400389340369 -6.668469927260713 7.015399994641402 -21.62879975220066 -11.483599612863378 -0.0 0.0 0.0 -0.0 0.0 0.0 -1.4098500440879156e-13 -2.6666901279844116e-14 2.2238398925285563e-13 103.53799751495538 51.39239920211611 -52.68319908731639 -27.26719945922164 -43.25640080620198 89.98399937125282 -3.8849300645200358 -47.485800789341035 -8.818060232657956 -1.3707300121796947e-09 3.2450000743426684e-09 -3.241039886194911e-10 -2.355940021802507e-09 5.493190059785225e-09 -6.028940183381687e-10 -1.3707300121796947e-09 3.2450000743426684e-09 -3.24114996320459e-10 7.730910121524428 5.474879855648998 0.41731399283890674 -1.3707399514130742e-09 3.2450000743426684e-09 -3.2411099577902373e-10 2.90554006136521 0.9651829962377875 0.10290200252939893 -1.3707300121796947e-09 3.245010013576048e-09 -3.2410699523758843e-10 10.278599710243157 0.7318009818271524 0.025912300303053633 -1.3707399514130742e-09 3.245010013576048e-09 -3.240989941547179e-10 2.221669932038622 -0.7334870246959406 -0.20891999872313852 -1.4123900569150808e-13 -2.6671099247067423e-14 2.2209600384819554e-13 -40.83980133067602 28.97710145944119 -38.04549922423752 16.470999475938456 -9.132200269380705 -30.673300392638403 1.0697799795788339 28.009600040867006 -4.287259796258698 -2.637820109482727e-10 -4.143929984413414e-09 -1.895920097879696e-09 -4.994789786167191e-10 -7.039710124348079e-09 -3.271459903876434e-09 -2.6379299380115714e-10 -4.143910105946655e-09 -1.895900020628269e-09 -7.730910121524428 5.474879855648998 -0.41731399283890674 -2.6377900433017536e-10 -4.143929984413414e-09 -1.895920097879696e-09 -2.90554006136521 0.9651829962377875 -0.10290200252939893 -2.6378700541304594e-10 -4.143929984413414e-09 -1.895920097879696e-09 -10.278599710243157 0.7318009818271524 -0.025912300303053633 -2.6377900433017536e-10 -4.143929984413414e-09 -1.8959300371130754e-09 -2.221669932038622 -0.7334870246959406 0.20891999872313852 -2.0321699793705798e-16 0.0 -3.882510030490358e-19 -10.169099825016804 14.485499342708893 0.1510120007533308 0.11121100102589218 29.586699257959413 2.41203989736816 -11.511699864882456 -18.744299875130263 -36.030798324758855 2.0321699793705798e-16 0.0 3.882510030490358e-19 82.36350267275624 -52.61170066708469 77.44090337565801 7.319690044807348 81.86280199527012 -6.865149920166284 -0.07931739934598458 -4.762649927114871 -3.710869950598254
